# xmcd CD database file
#
# Track frame offsets:
#	150
#	9273
#	16174
#	33896
#	52351
#	59603
#	74323
#	97017
#	113197
#	130956
#	150639
#	164556
#	174323
#	203289
#	223682
#	229508
#	250836
#	269139
#	285659
#	298437
#	314525
#	333310
#
# Disc length: 4650 seconds
#
# Revision: 1
# Processed by: cddbd v1.4PL0 Copyright (c) Steve Scherf et al.
# Submitted via: CDex 1.40Release
#
DISCID=4b122816
DTITLE=Dj Snowman - Energy 01 Live
DYEAR=2001
DGENRE=Trance
TTITLE0=Tatanka and Ado the Dream > Kriminal Flash
TTITLE1=Mark Norman > X-Fader
TTITLE2=DJ Cyglas > Read my Heart
TTITLE3=Yves Deruyter > Rhythmic Bazz (Rave Mix)
TTITLE4=Andrea Krämer and Thomas Pogadl > Lecker Mädche
TTITLE5=L-X-Carbo > Drops of Light
TTITLE6=Camilla > Get Your Thing Together (Pitfire RMX)
TTITLE7=The Paragod vs. Vasquez > Open Your Mind
TTITLE8=Cygnus X > Superstring (Future Breeze RMX)
TTITLE9=Square > Nova (4 Strings Remix)
TTITLE10=DJ Pure > My Definition
TTITLE11=Kay D.Smith > Tongeflüster
TTITLE12=FMF Greg @ SMP > False Witness (Original Club Mix)
TTITLE13=DJ Wag > The Darkness (DJ Wag Mix)
TTITLE14=Kay Tracid > Too Many Times
TTITLE15=The Joker > Milky Way 2001
TTITLE16=Force Void > Happy Strings
TTITLE17=A-C-E > Stairway to Heaven (Original Mix)
TTITLE18=AEON > Masterpiece of Emotion
TTITLE19=DJ Lerby > Redemption (Villa vs Sunstar Mix)
TTITLE20=Andy Prinz > Into the Ocean (DJ Seduction Mix)
TTITLE21=Angy Dee > Something Wonderful
EXTD=YEAR: 2001 ID3G: 31
EXTT0=
EXTT1=
EXTT2=
EXTT3=
EXTT4=
EXTT5=
EXTT6=
EXTT7=
EXTT8=
EXTT9=
EXTT10=
EXTT11=
EXTT12=
EXTT13=
EXTT14=
EXTT15=
EXTT16=
EXTT17=
EXTT18=
EXTT19=
EXTT20=
EXTT21=
PLAYORDER=
